<svg xmlns="http://www.w3.org/2000/svg" width="28" height="28" viewBox="0 0 28 28"><path style="line-height:normal;text-indent:0;text-align:start;text-decoration-line:none;text-decoration-style:solid;text-decoration-color:#000;text-transform:none;block-progression:tb;isolation:auto;mix-blend-mode:normal" d="M 14 0 C 6.2739359 0 1.1842379e-015 6.273936 0 14 C 0 21.726064 6.273936 28 14 28 C 21.726064 28 28 21.726064 28 14 C 28 6.273936 21.726064 -1.1842379e-015 14 0 z M 14 1 C 21.185624 1 27 6.8143761 27 14 C 27 21.185624 21.185624 27 14 27 C 6.814376 27 1 21.185624 1 14 C 1 6.8143761 6.814376 1 14 1 z M 19.326172 5.4882812 C 18.94359 5.4882812 18.559872 5.6334867 18.271484 5.921875 L 17.900391 6.2949219 A 0.50005 0.50005 0 0 0 17.857422 6.3359375 L 17.671875 6.5214844 A 0.50005 0.50005 0 0 0 17.583984 6.6328125 L 16.755859 7.5371094 A 0.50005 0.50005 0 0 0 16.740234 7.5566406 L 14.027344 10.269531 L 9.578125 5.8203125 C 9.3897366 5.6319242 9.1325825 5.5390625 8.875 5.5390625 C 8.6174175 5.5390625 8.3602633 5.6319245 8.171875 5.8203125 L 5.7714844 8.2207031 C 5.3947077 8.5974791 5.3947077 9.2521292 5.7714844 9.6289062 L 5.7734375 9.6308594 L 10.265625 14.029297 L 7.5039062 16.791016 A 0.50005 0.50005 0 0 0 7.1503906 17.119141 L 5.6503906 21.71875 A 0.50005 0.50005 0 0 0 6.28125 22.349609 L 10.880859 20.849609 A 0.50005 0.50005 0 0 0 11.134766 20.658203 L 14.015625 17.777344 L 18.369141 22.226562 L 18.371094 22.228516 C 18.747871 22.605293 19.402521 22.605293 19.779297 22.228516 L 22.179688 19.828125 C 22.556465 19.451348 22.556465 18.798651 22.179688 18.421875 L 17.775391 14.017578 L 20.636719 11.15625 A 0.50005 0.50005 0 0 0 20.75 10.980469 L 21.367188 10.414062 A 0.50005 0.50005 0 0 0 21.369141 10.412109 A 0.50005 0.50005 0 0 0 21.478516 10.328125 L 21.664062 10.142578 A 0.50005 0.50005 0 0 0 21.710938 10.095703 L 22.078125 9.7285156 C 22.654902 9.1517386 22.654902 8.1978707 22.078125 7.6210938 L 20.378906 5.921875 C 20.090517 5.6334867 19.708755 5.4882813 19.326172 5.4882812 z M 19.324219 6.4609375 C 19.441753 6.4609375 19.560264 6.5172972 19.671875 6.6289062 L 21.371094 8.328125 C 21.594317 8.551348 21.594317 8.7982614 21.371094 9.0214844 L 20.994141 9.4003906 A 0.50005 0.50005 0 0 0 20.988281 9.40625 L 20.964844 9.4277344 L 20.259766 10.072266 L 17.927734 7.7402344 L 18.59375 7.0117188 L 18.978516 6.6289062 C 19.090128 6.5172942 19.206685 6.4609375 19.324219 6.4609375 z M 8.875 6.53125 L 13.320312 10.976562 L 10.974609 13.322266 L 10.242188 12.603516 L 11.953125 10.892578 L 10.962891 9.9023438 L 9.2402344 11.625 L 8.2109375 10.615234 L 8.9042969 9.921875 L 7.9140625 8.9335938 L 7.2109375 9.6367188 L 6.4824219 8.9238281 L 8.875 6.53125 z M 17.126953 8.5839844 L 17.751953 9.2089844 L 9.0292969 17.931641 L 8.4042969 17.306641 L 17.126953 8.5839844 z M 18.742188 10.199219 L 19.460938 10.917969 L 10.738281 19.640625 L 10.019531 18.921875 L 18.742188 10.199219 z M 17.068359 14.724609 L 21.46875 19.125 L 19.076172 21.517578 L 18.445312 20.875 L 20.132812 19.1875 L 19.142578 18.197266 L 17.466797 19.875 L 16.388672 18.773438 L 17.085938 18.076172 L 16.095703 17.085938 L 15.410156 17.771484 L 14.722656 17.070312 L 17.068359 14.724609 z M 7.8476562 18.205078 L 9.7949219 20.152344 L 7.2363281 20.986328 L 7.0136719 20.763672 L 7.8476562 18.205078 z " color="#000" font-family="sans-serif" font-weight="400" overflow="visible"/></svg>