<svg xmlns="http://www.w3.org/2000/svg" viewBox="0 0 64 64"><g data-name="Photo Camera"><path d="M32.32 24.79a6.4 6.4 0 10-6.4 6.4A6.41 6.41 0 0032.32 24.79zm-10.8 0a4.4 4.4 0 114.4 4.4A4.41 4.41 0 0121.52 24.79zM12.32 17.88H10.47a1 1 0 000 2h1.85a1 1 0 000-2zM41.37 17.88H39.52a1 1 0 000 2h1.85a1 1 0 000-2zM23.85 10.61H27.5a1 1 0 000-2H23.85a1 1 0 000 2z"/><path d="M55.78,32.77H46.35V13.32a3.25,3.25,0,0,0-3.24-3.24H32.93L32.11,7.4A3.35,3.35,0,0,0,28.88,5H22.47a3.37,3.37,0,0,0-3.24,2.4l-.81,2.68H8.24A3.25,3.25,0,0,0,5,13.32V36.25a3.24,3.24,0,0,0,3.24,3.24h19.1V55.78A3.23,3.23,0,0,0,30.56,59H55.78A3.23,3.23,0,0,0,59,55.78V36A3.22,3.22,0,0,0,55.78,32.77Zm-22.49,0a10.78,10.78,0,0,0,0-16H44.35v16ZM7,16.81H18.55a10.78,10.78,0,0,0,0,16H7Zm10,8a8.9,8.9,0,1,1,8.9,8.9A8.91,8.91,0,0,1,17,24.79ZM8.24,12.08H19.16a1,1,0,0,0,.95-.7l1-3.4a1.37,1.37,0,0,1,1.32-1h6.41A1.37,1.37,0,0,1,30.2,8l1,3.4a1,1,0,0,0,1,.7H43.11a1.25,1.25,0,0,1,1.24,1.24v1.49H30.27a10.74,10.74,0,0,0-8.7,0H7V13.32A1.25,1.25,0,0,1,8.24,12.08Zm0,25.41A1.24,1.24,0,0,1,7,36.25V34.77H21.57a10.9,10.9,0,0,0,4.35.92,10.57,10.57,0,0,0,1.51-.16,3.73,3.73,0,0,0-.09.46v1.5ZM57,55.78A1.22,1.22,0,0,1,55.78,57H30.56a1.22,1.22,0,0,1-1.22-1.22V36a1.22,1.22,0,0,1,1.22-1.22H55.78A1.22,1.22,0,0,1,57,36Z"/><path d="M54.36,36.41H32a1,1,0,0,0-1,1v17a1,1,0,0,0,1,1H54.36a1,1,0,0,0,1-1v-17A1,1,0,0,0,54.36,36.41Zm-1,2v8L47.47,43a3.25,3.25,0,0,0-3.25,0L40.5,45.18,36.78,43a3.25,3.25,0,0,0-3.25,0l-.55.32V38.41ZM33,45.65l1.56-.89a1.25,1.25,0,0,1,1.24,0l2.72,1.57L33,49.52Zm0,7.71V51.83l12.24-7.07a1.25,1.25,0,0,1,1.24,0l6.9,4v4.62Z"/></g></svg>